<svg width="48" height="28" viewBox="0 0 48 28" fill="none" xmlns="http://www.w3.org/2000/svg">
<path fill-rule="evenodd" clip-rule="evenodd" d="M17.5581 7.83063H22.7041L22.7075 9.97593L21.4406 9.97417L24.4433 17.3777L27.3984 9.98123H26.0941V7.83769L30.2126 7.83416L30.2075 9.05778L25.2517 21.0909C24.0543 21.0944 23.2765 20.6442 22.8587 19.7013L18.7775 9.98123L17.5564 9.9777L17.5581 7.83063ZM10.4793 7.45454C14.0577 7.45454 16.9586 10.4915 16.9586 14.2383C16.9586 17.9833 14.0577 21.0203 10.4793 21.0203C6.90081 21.0203 4 17.9833 4 14.2383C4 10.4915 6.90081 7.45454 10.4793 7.45454ZM10.4589 9.674C12.716 9.674 14.5469 11.7398 14.5469 14.2877C14.5469 16.8356 12.716 18.9014 10.4589 18.9014C8.20177 18.9014 6.37262 16.8356 6.37262 14.2877C6.37262 11.7398 8.20177 9.674 10.4589 9.674ZM37.5207 7.45454C41.0992 7.45454 44 10.4915 44 14.2383C44 17.9833 41.0992 21.0203 37.5207 21.0203C33.9423 21.0203 31.0414 17.9833 31.0414 14.2383C31.0414 10.4915 33.9423 7.45454 37.5207 7.45454ZM37.5003 9.674C39.7575 9.674 41.5866 11.7398 41.5866 14.2877C41.5866 16.8356 39.7575 18.9014 37.5003 18.9014C35.2432 18.9014 33.4141 16.8356 33.4141 14.2877C33.4141 11.7398 35.2432 9.674 37.5003 9.674Z" fill="#4C3494"/>
</svg>
